<svg xmlns="http://www.w3.org/2000/svg" width="310" height="310"><path fill="#060606" d="M0 0h310v310H0V0Z"/><path fill="#4F52FB" d="M166 102h25v50l51-1 1-49h25v120h-25c-1-1-1-1-1.12-2.943l.006-2.577v-2.953l.016-3.125.003-2.856c.006-3.536.02-7.072.032-10.608L242 173h-51v49h-25V102Z"/><path fill="#F7F7F7" d="M129.683 110.192c9.151 7.246 9.151 7.246 10.317 12.808a62.7 62.7 0 0 0 3 3c4.236 6.134 4 10.109 4 18h-25l-4-12a86.75 86.75 0 0 0-4-2 193.483 193.483 0 0 1-5.219-3.879c-6.104-3.842-16.16-2.993-23.039-1.695-6.651 2.521-12.27 7.86-15.18 14.262-1.082 2.733-1.896 5.45-2.562 8.312h-2l1 36 3 1c1.754 1.926 1.754 1.926 3.562 4.313l1.817 2.363C77 193 77 193 77.96 195.25c.884 1.938.884 1.938 2.95 2.324l2.151.114C87 198 87 198 88 199c12.67 1.084 12.67 1.084 24.203-3.375 4.757-4.302 7.421-8.685 9.797-14.625h25c0 5.577-.1 8.131-2 13h-2l-.75 2.125c-3.575 8.221-10.216 17.103-18.563 20.938L121 218a681.874 681.874 0 0 0-6.816 3.098C102.27 226.02 82.85 224.385 71 220c-14.506-8.357-23.6-21.422-29-37-1.32-6.512-1.186-13.018-1.185-19.63-.002-2.166-.02-4.331-.04-6.497-.036-8.762.04-16.929 4.225-24.873h2l.125-2c1.074-3.683 2.926-5.973 5.305-8.937 1.648-2.067 1.648-2.067 2.98-4.563 5.65-8.885 16.044-12.387 25.813-14.66 16.078-3.17 34.81-1.32 48.46 8.352Z"/><path fill="#383AB0" d="M166 102h25v49h-1v-48h-23v118h23l-.035-10.684c-.008-3.398-.014-6.797-.02-10.196-.005-2.37-.012-4.74-.02-7.11-.013-3.398-.018-6.796-.023-10.194l-.015-3.232v-2.972l-.007-2.632C190 172 190 172 191 171a81.4 81.4 0 0 1 4.871-.13l3.145-.009 3.422.006 3.486-.003c2.437 0 4.875.001 7.313.006 3.747.005 7.493 0 11.24-.007 2.362 0 4.724.002 7.085.004l3.422-.006 3.145.01 2.783.002C243 171 243 171 244 172c.093 1.535.117 3.074.114 4.612v2.972l-.016 3.232-.005 3.292c-.005 3.485-.018 6.97-.03 10.454-.006 2.357-.01 4.713-.014 7.069-.01 5.79-.03 11.58-.049 17.369h23V103h-24v-1h25v120h-25c-1-1-1-1-1.12-2.943l.006-2.577v-2.953l.016-3.125.003-2.856c.006-3.536.02-7.072.032-10.608L242 173h-51v49h-25V102Z"/><path fill="#1B1B4C" d="M166 101h27v49h48c-.04-15.752-.04-15.752-.09-31.504l-.008-5.898-.015-3.125v-2.953l-.007-2.577C241 102 241 102 242 101c1.927-.087 3.857-.107 5.785-.098l3.545.01 3.732.025 3.745.014c3.064.012 6.129.028 9.193.049v1h-25l.035 10.684c.008 3.398.014 6.797.02 10.196.005 2.37.012 4.74.02 7.11.013 3.398.018 6.796.023 10.194l.015 3.232v2.972l.007 2.632C243 151 243 151 242 152a78.833 78.833 0 0 1-4.795.114h-3.094l-3.365-.016-3.426-.005a5578.82 5578.82 0 0 1-10.882-.03c-2.453-.006-4.905-.01-7.358-.014-6.027-.01-12.053-.03-18.08-.049v-50h-25v-1Z"/><path fill="#484848" d="M117 221c-5.483 5.044-13.396 4.205-20.438 4.25l-2.447.063c-5.71.036-9.878-1.028-15.115-3.313 3.01-.934 3.867-1.044 7 0 3.58.231 7.164.185 10.75.188l2.96.037c4.559.009 13.725-3.008 17.29-1.225Z"/><path fill="#636363" d="M104 100v1l-3.55.113c-8.148.321-15.683.74-23.481 3.364C75 105 75 105 73 104c9.433-6.694 20.171-4.92 31-4Z"/><path fill="#494949" d="M83 126c-1.946 4.777-5.144 8.134-9.813 10.313L71 137c1.439-3.387 3.221-5.36 6-7.75l2.125-1.86C81 126 81 126 83 126Z"/><path fill="#B0B0B0" d="m63 109 2 1-9 10-2-1c2.319-4.509 5.065-6.94 9-10Z"/><path fill="#565656" d="M138 203c0 3.517-.692 4.364-2.75 7.125l-1.547 2.133c-1.898 1.941-3.054 2.362-5.703 2.742 1.561-3.832 4.029-6.174 7-9l1.813-1.813L138 203Z"/><path fill="#9C9C9C" d="M67 216c4.389.665 7.981 2.188 12 4-3.179 1.399-4.301.893-7.688-.313C68 218 68 218 67 216Z"/></svg>